<svg width="90" height="33" viewBox="0 0 90 33" fill="none" xmlns="http://www.w3.org/2000/svg">
<path d="M12.1912 11.1741V9.51684C12.1912 9.36703 12.2664 9.21722 12.3886 9.13295L13.8925 8.05617C14.0617 7.93444 14.2778 7.93444 14.447 8.05617L15.9322 9.11422C16.0731 9.21722 16.1577 9.37639 16.1577 9.54493V11.2022C16.1577 11.324 16.0262 11.3989 15.9228 11.3427L14.2497 10.3034C14.1181 10.2285 13.9583 10.2378 13.8267 10.3127L12.4449 11.3146C12.3322 11.3801 12.1912 11.3052 12.1912 11.1741Z" fill="#D5426C"/>
<path d="M13.8926 11.4834C14.0618 11.3617 14.2781 11.3617 14.4473 11.4834L15.9326 12.541C16.0734 12.644 16.1581 12.8033 16.1582 12.9717V26.418H12.1914V12.9434C12.1916 12.7937 12.2666 12.6437 12.3887 12.5596L13.8926 11.4834ZM7.51953 5.5C8.1211 5.5 8.74194 5.59358 9.3623 5.77148C9.98254 5.95875 10.5837 6.2402 11.1758 6.62402L9.64355 9.42285C9.41816 9.22649 9.17405 9.10459 8.91113 9.03906C8.65747 8.97355 8.42216 8.94534 8.20605 8.94531C7.61393 8.94531 7.14391 9.14252 6.77734 9.52637C6.41081 9.91957 6.23149 10.5186 6.23145 11.333V12.6533H9.57812V16.0713H6.23145V26.3613H2.27441V16.0713H0V12.6445H2.27441V10.79C2.27445 9.67595 2.51911 8.72102 3.00781 7.93457C3.49659 7.14805 4.13561 6.5483 4.93457 6.12695C5.7335 5.71499 6.59842 5.50001 7.51953 5.5ZM27.5967 12.373C29.204 12.373 30.4827 12.897 31.4414 13.9551C32.4001 15.0131 32.8701 16.4833 32.8701 18.3652V26.3613H28.8936V19.1328C28.8935 16.9138 28.0569 15.7998 26.3838 15.7998C25.5193 15.7999 24.8238 16.118 24.2881 16.7451C23.7524 17.3724 23.4795 18.2621 23.4795 19.4043V26.3613H19.5137V12.6445H22.9814L23.1504 14.3203C23.6956 13.7023 24.3447 13.215 25.0967 12.8779C25.8579 12.5409 26.6851 12.3731 27.5967 12.373Z" fill="white"/>
<path d="M82.8101 12.373C84.1915 12.3731 85.432 12.6816 86.5034 13.29C87.5843 13.8986 88.4303 14.7417 89.0601 15.8184C89.6804 16.8857 90.0005 18.1123 90.0005 19.498V20.6875H79.2563C79.5007 21.4459 79.9621 22.0635 80.6294 22.541C81.2967 23.0185 82.077 23.2529 82.9604 23.2529C83.9191 23.2529 84.7087 23.1029 85.3384 22.7939C85.9681 22.485 86.5418 22.0913 87.0493 21.6045L89.4458 24.4609C88.3837 25.2942 87.3309 25.8648 86.2876 26.1738C85.2444 26.4828 84.2482 26.6425 83.2896 26.6426C81.7668 26.6426 80.4219 26.3338 79.2563 25.7158C78.091 25.0979 77.1795 24.2455 76.5122 23.1689C75.8448 22.0922 75.5249 20.8555 75.5249 19.4697C75.525 18.1124 75.8446 16.8953 76.4741 15.8281C77.1039 14.7607 77.9691 13.9178 79.0688 13.2998C80.1686 12.6818 81.4095 12.373 82.8101 12.373ZM41.3198 12.6445H44.6665V16.0713H41.3198V21.1279C41.3199 21.7737 41.5269 22.2882 41.9497 22.6533C42.3633 23.0279 42.8994 23.2061 43.5386 23.2061C44.0178 23.206 44.5067 23.103 45.0142 22.8877V26.1279C44.14 26.465 43.2839 26.6328 42.438 26.6328C40.8027 26.6327 39.5529 26.1929 38.6694 25.3223C37.7953 24.4515 37.353 23.1966 37.353 21.5674V16.0713H35.0786V12.6445H37.353V9.21777H41.3198V12.6445ZM61.1245 26.3525H57.6567L57.4868 24.667C56.9417 25.2848 56.3027 25.7718 55.5415 26.1182C54.7896 26.4646 53.9624 26.6328 53.0601 26.6328C51.3118 26.6328 49.9956 26.0709 49.0933 24.9473C48.1911 23.8237 47.7398 22.1666 47.7397 19.9854V12.6631H51.7349V20.0127C51.7349 21.0332 51.951 21.8294 52.3833 22.3818C52.8157 22.9436 53.4363 23.2158 54.2446 23.2158C55.1091 23.2158 55.8046 22.916 56.3403 22.3076C56.8761 21.6991 57.1489 20.9309 57.1489 19.9854H57.1587V12.6348H61.1245V26.3525ZM72.4976 12.3633C73.0897 12.3633 73.7106 12.4569 74.3403 12.6348L73.7856 16.0527C73.25 15.8749 72.7332 15.7901 72.2163 15.79C71.1542 15.79 70.2887 16.1838 69.6401 16.9609C68.9917 17.7381 68.6626 18.8526 68.6626 20.3037V26.3525L64.7056 26.3613V12.6445H68.1743L68.3716 14.6016C69.3678 13.1129 70.7495 12.3634 72.4976 12.3633ZM82.5845 15.7998C81.7385 15.7998 81.0046 16.052 80.3843 16.5576C79.764 17.0632 79.36 17.7096 79.1626 18.4961H85.9214V18.4873C85.724 17.6821 85.329 17.0353 84.7368 16.5391C84.1447 16.0429 83.4209 15.7999 82.5845 15.7998Z" fill="white"/>
</svg>
